<svg width="240" height="66" viewBox="0 0 240 66" fill="none" xmlns="http://www.w3.org/2000/svg">
<path d="M221.574 60V58.752H226.716V27.744H221.574V26.496H234.751V58.752H240V60H221.574ZM230.68 20.32C229.073 20.32 227.698 19.9893 226.556 19.328C225.449 18.6667 224.895 17.8667 224.895 16.928C224.895 15.9893 225.449 15.1893 226.556 14.528C227.698 13.8453 229.073 13.504 230.68 13.504C232.18 13.504 233.483 13.8453 234.59 14.528C235.697 15.1893 236.251 15.9893 236.251 16.928C236.251 17.8667 235.697 18.6667 234.59 19.328C233.483 19.9893 232.18 20.32 230.68 20.32Z" fill="#3E3E3E"/>
<path d="M182.456 60V58.752H187.438V13.248H182.456V12H195.472V39.904L208.38 27.744H203.613V26.496H215.611V27.744H210.951L202.703 36.064L215.451 58.752H219.682V60H202.542V58.752H206.881L196.704 40.672L195.472 42.304V58.752H199.703V60H182.456Z" fill="#3E3E3E"/>
<path d="M163.99 60.704C162.061 60.704 160.222 60.32 158.473 59.552C156.723 58.784 155.152 57.6533 153.759 56.16C152.367 54.6667 151.26 52.832 150.438 50.656C149.617 48.48 149.206 45.9733 149.206 43.136C149.206 40.0427 149.635 37.4187 150.492 35.264C151.349 33.1093 152.474 31.3707 153.866 30.048C155.295 28.7253 156.884 27.7653 158.633 27.168C160.383 26.5707 162.169 26.272 163.99 26.272C165.775 26.272 167.543 26.5707 169.292 27.168C171.042 27.7653 172.631 28.7253 174.059 30.048C175.488 31.3707 176.63 33.1093 177.487 35.264C178.344 37.4187 178.773 40.0427 178.773 43.136C178.773 45.9733 178.362 48.48 177.541 50.656C176.755 52.832 175.648 54.6667 174.22 56.16C172.827 57.6533 171.238 58.784 169.453 59.552C167.703 60.32 165.882 60.704 163.99 60.704ZM163.99 59.424C165.954 59.424 167.525 58.0587 168.703 55.328C169.882 52.576 170.471 48.512 170.471 43.136C170.471 37.8453 169.882 33.92 168.703 31.36C167.525 28.8 165.954 27.52 163.99 27.52C161.99 27.52 160.401 28.8 159.223 31.36C158.08 33.92 157.509 37.8453 157.509 43.136C157.509 48.512 158.08 52.576 159.223 55.328C160.401 58.0587 161.99 59.424 163.99 59.424Z" fill="#3E3E3E"/>
<path d="M118.658 65V63.1893H126.249V1.81072H121.112C118.403 1.81072 116.307 2.24405 114.824 3.11072C113.393 3.97738 112.396 5.27738 111.834 7.01072C111.272 8.7131 110.99 10.8488 110.99 13.4179H108V0H156V13.4179H153.01C153.01 10.8488 152.703 8.7131 152.089 7.01072C151.527 5.27738 150.505 3.97738 149.022 3.11072C147.591 2.24405 145.546 1.81072 142.888 1.81072H137.674V63.1893H145.649V65H118.658Z" fill="#3E3E3E"/>
<path d="M74.1777 48V46.752H79.2126V15.744H74.1777V14.496H87.1934V18.72C87.5148 18.08 88.0504 17.4187 88.8003 16.736C89.5502 16.0533 90.5321 15.4773 91.7462 15.008C92.996 14.5173 94.4779 14.272 96.1919 14.272C97.9059 14.272 99.5307 14.5173 101.066 15.008C102.637 15.4773 103.923 16.416 104.923 17.824C105.958 19.2107 106.476 21.28 106.476 24.032V46.752H111.35V48H94.1565V46.752H98.4416V24.608C98.4416 21.6427 98.0488 19.488 97.2632 18.144C96.4776 16.8 95.2278 16.128 93.5138 16.128C92.6568 16.128 91.8534 16.352 91.1035 16.8C90.3893 17.2267 89.7466 17.7813 89.1752 18.464C88.6039 19.1253 88.1397 19.84 87.7826 20.608C87.4612 21.3547 87.2827 22.0587 87.247 22.72V46.752H91.532V48H74.1777Z" fill="#3E3E3E"/>
<path d="M50.7139 48.672C48.6785 48.672 46.8217 48.384 45.1434 47.808C43.4651 47.232 42.1439 46.3573 41.1798 45.184C40.2156 43.9893 39.7336 42.4747 39.7336 40.64C39.7336 38.592 40.3585 36.9067 41.6083 35.584C42.8938 34.2613 44.4649 33.152 46.3218 32.256C48.2143 31.36 50.1069 30.5493 51.9994 29.824C53.892 29.0987 55.4631 28.3413 56.7129 27.552C57.9984 26.7627 58.6412 25.8133 58.6412 24.704C58.6412 23.0613 58.4626 21.5573 58.1056 20.192C57.7485 18.8267 57.1236 17.728 56.2309 16.896C55.3382 16.064 54.0705 15.648 52.4279 15.648C50.7139 15.648 49.2142 16.0213 47.9287 16.768C46.6789 17.5147 46.054 18.3893 46.054 19.392C46.054 19.8827 46.1789 20.32 46.4289 20.704C46.6789 21.0667 46.9288 21.44 47.1788 21.824C47.4287 22.1867 47.5537 22.6347 47.5537 23.168C47.5537 23.936 47.2681 24.576 46.6967 25.088C46.1254 25.5787 45.2505 25.824 44.0722 25.824C42.9652 25.824 42.126 25.536 41.5547 24.96C40.9834 24.384 40.6977 23.584 40.6977 22.56C40.6977 21.0453 41.2333 19.6587 42.3046 18.4C43.4115 17.1413 44.947 16.1387 46.911 15.392C48.9106 14.6453 51.196 14.272 53.767 14.272C56.2666 14.272 58.4805 14.6453 60.4087 15.392C62.3727 16.1387 63.9082 17.312 65.0151 18.912C66.1221 20.512 66.6756 22.5813 66.6756 25.12V44.512C66.6756 45.3867 66.8541 45.9947 67.2112 46.336C67.604 46.6773 68.1218 46.848 68.7645 46.848C69.2644 46.848 69.7286 46.784 70.1571 46.656C70.6214 46.5067 70.9606 46.368 71.1748 46.24L72.2996 47.296C71.9069 47.552 71.157 47.7973 70.05 48.032C68.9788 48.288 67.7111 48.416 66.2471 48.416C64.9259 48.416 63.7475 48.288 62.7119 48.032C61.6764 47.776 60.8551 47.392 60.2481 46.88C59.641 46.368 59.3018 45.7387 59.2304 44.992C59.0518 45.4187 58.6233 45.9307 57.9449 46.528C57.3021 47.104 56.3916 47.6053 55.2132 48.032C54.0348 48.4587 52.535 48.672 50.7139 48.672ZM53.1242 46.688C54.1955 46.688 55.1418 46.4533 55.9631 45.984C56.7843 45.5147 57.4271 44.9387 57.8913 44.256C58.3912 43.5733 58.6412 42.9333 58.6412 42.336V27.68C58.5341 28.2773 57.9449 28.9173 56.8736 29.6C55.8024 30.2613 54.5704 31.04 53.1778 31.936C51.8209 32.832 50.6246 33.9307 49.5891 35.232C48.5536 36.512 48.0358 38.08 48.0358 39.936C48.0358 42.0907 48.4107 43.7547 49.1606 44.928C49.9462 46.1013 51.2674 46.688 53.1242 46.688Z" fill="#3E3E3E"/>
<path d="M14.8099 66C11.3802 66 8.57414 65.4597 6.39163 64.379C4.20913 63.2674 2.59823 61.8007 1.55894 59.9789C0.519645 58.1263 0 56.073 0 53.8189C0 52.0898 0.467681 50.8856 1.40304 50.2063C2.39037 49.4961 3.6635 49.1411 5.22243 49.1411C6.7294 49.1411 7.95057 49.4653 8.88593 50.1137C9.82129 50.7621 10.289 51.8274 10.289 53.3095C10.289 54.2667 10.0292 55.1004 9.50951 55.8105C8.98986 56.4898 8.44423 57.1691 7.87262 57.8484C7.35298 58.4968 7.09316 59.2533 7.09316 60.1179C7.09316 61.2912 7.71673 62.2175 8.96388 62.8968C10.263 63.5761 11.77 63.9158 13.4848 63.9158C15.9271 63.9158 17.9278 63.1284 19.4867 61.5537C21.0456 59.9481 21.8251 57.2772 21.8251 53.5411V1.80632H13.9525V0H41V1.80632H33.5171V46.6863C33.5171 50.4533 32.9715 53.5874 31.8802 56.0884C30.789 58.5586 29.334 60.5193 27.5152 61.9705C25.6965 63.4218 23.6698 64.4561 21.4354 65.0737C19.2529 65.6912 17.0444 66 14.8099 66Z" fill="#3E3E3E"/>
</svg>
